<?xml version="1.0" standalone="no"?>
<!DOCTYPE svg PUBLIC "-//W3C//DTD SVG 20010904//EN"
 "http://www.w3.org/TR/2001/REC-SVG-20010904/DTD/svg10.dtd">
<svg version="1.0" xmlns="http://www.w3.org/2000/svg"
 width="613.000000pt" height="407.000000pt" viewBox="0 0 613.000000 407.000000"
 preserveAspectRatio="xMidYMid meet">

<g transform="translate(0.000000,407.000000) scale(0.100000,-0.100000)"
fill="#000000" stroke="none">
<path d="M2237 3316 c-54 -15 -112 -64 -133 -113 -8 -18 -14 -57 -14 -88 l0
-55 -117 0 c-142 0 -182 -10 -235 -58 -83 -75 -78 7 -78 -1100 0 -1075 -3
-1021 58 -1085 15 -16 45 -39 67 -50 l40 -22 1240 0 1240 0 40 22 c22 11 52
34 67 50 61 64 58 10 58 1085 0 936 -1 985 -19 1023 -10 22 -34 54 -52 72 -52
49 -104 63 -240 63 l-119 0 0 55 c0 105 -65 184 -167 205 -81 17 -218 8 -268
-18 -69 -35 -104 -92 -112 -184 l-6 -58 -422 0 -422 0 -6 60 c-10 95 -43 148
-117 185 -46 24 -215 31 -283 11z m235 -153 c16 -14 18 -34 18 -169 0 -125 -3
-155 -16 -168 -12 -12 -38 -16 -114 -16 -131 0 -130 -2 -130 185 0 187 -1 185
127 185 76 0 100 -4 115 -17z m1412 -5 c13 -18 16 -52 16 -163 0 -187 1 -185
-130 -185 -76 0 -102 4 -114 16 -13 13 -16 43 -16 169 0 126 3 156 16 169 12
12 38 16 114 16 91 0 100 -2 114 -22z m-1792 -307 c5 -73 39 -126 101 -161 35
-20 59 -25 142 -28 55 -2 119 1 141 7 91 25 149 93 161 190 l6 51 423 0 424 0
0 -26 c0 -102 67 -192 160 -214 69 -17 234 -9 276 13 36 19 91 79 105 114 5
13 9 44 9 69 l0 44 123 0 c168 0 162 8 162 -204 l0 -161 -1260 0 -1260 0 -3
156 c-2 145 -1 157 18 182 21 27 23 27 145 27 l123 0 4 -59z m2238 -1171 c0
-764 0 -766 -45 -784 -9 -3 -560 -6 -1225 -6 -1174 0 -1208 1 -1231 19 l-24
19 -3 736 -2 736 1265 0 1265 0 0 -720z"/>
<path d="M2010 2263 c-48 -18 -50 -27 -50 -210 0 -229 -16 -213 214 -213 l175
0 20 26 c19 24 21 40 21 185 0 86 -3 165 -6 174 -14 36 -57 45 -211 44 -81 0
-155 -3 -163 -6z m230 -213 l0 -70 -70 0 -70 0 0 70 0 70 70 0 70 0 0 -70z"/>
<path d="M2539 2259 c-42 -16 -49 -47 -49 -213 0 -140 2 -156 21 -180 l20 -26
178 0 c160 0 180 2 194 18 15 16 17 45 17 194 0 227 13 212 -199 215 -86 1
-168 -2 -182 -8z m241 -209 l0 -70 -70 0 -70 0 0 70 0 70 70 0 70 0 0 -70z"/>
<path d="M3073 2260 c-38 -16 -43 -42 -43 -214 0 -221 -15 -206 215 -206 230
0 215 -15 215 209 0 229 13 215 -202 218 -89 1 -173 -2 -185 -7z m247 -210 l0
-70 -75 0 -75 0 0 70 0 70 75 0 75 0 0 -70z"/>
<path d="M3620 2263 c-48 -19 -50 -26 -50 -213 0 -159 2 -179 18 -193 16 -15
45 -17 194 -17 227 0 212 -14 216 205 3 160 3 163 -21 191 l-25 29 -159 2
c-87 1 -165 -1 -173 -4z m230 -213 l0 -70 -70 0 -70 0 0 70 0 70 70 0 70 0 0
-70z"/>
<path d="M3225 1736 c-102 -47 -157 -132 -157 -241 0 -111 50 -188 197 -298
44 -33 109 -88 145 -123 36 -34 72 -63 80 -64 37 -5 54 3 88 41 20 23 84 78
141 122 56 44 119 96 138 116 115 118 121 284 14 391 -83 83 -198 101 -315 51
l-49 -21 -62 25 c-82 32 -153 33 -220 1z m203 -151 c70 -32 81 -32 173 6 83
34 107 34 154 -2 60 -48 64 -123 9 -188 -20 -24 -172 -149 -250 -206 -10 -7
-24 0 -51 26 -21 20 -77 66 -126 103 -93 72 -127 119 -127 179 0 63 72 123
134 112 17 -3 54 -16 84 -30z"/>
<path d="M1980 1720 c-18 -18 -20 -33 -20 -194 l0 -175 26 -20 c25 -19 40 -21
191 -21 161 0 164 0 188 25 25 24 25 27 25 190 0 163 0 166 -25 190 -24 25
-27 25 -195 25 -157 0 -172 -2 -190 -20z m260 -195 l0 -76 -67 3 -68 3 -3 59
c-4 84 -3 86 73 86 l65 0 0 -75z"/>
<path d="M2519 1721 c-24 -19 -24 -22 -24 -196 0 -230 -15 -215 214 -215 225
0 211 -14 211 215 0 230 15 215 -209 215 -151 0 -171 -2 -192 -19z m259 -193
l-3 -73 -67 -3 -68 -3 0 76 0 75 70 0 71 0 -3 -72z"/>
</g>
</svg>
